<mxfile host="app.diagrams.net" modified="2021-10-15T16:11:24.708Z" agent="5.0 (Windows)" etag="VanCHu_J2ivK3pxjSiiV" version="15.5.4" type="github">
  <diagram id="vaol6sHielq2GLeHfpsT" name="Page-1">
    <mxGraphModel dx="1030" dy="528" grid="0" gridSize="10" guides="1" tooltips="1" connect="1" arrows="1" fold="1" page="1" pageScale="1" pageWidth="827" pageHeight="1169" math="0" shadow="0">
      <root>
        <mxCell id="0" />
        <mxCell id="1" parent="0" />
        <mxCell id="_888bn8OXBweJfGqwLtD-1" value="" style="rounded=0;whiteSpace=wrap;html=1;" parent="1" vertex="1">
          <mxGeometry x="106" y="34" width="618" height="775" as="geometry" />
        </mxCell>
        <mxCell id="K4tTZbJK00jlwxvX5w37-96" value="" style="rounded=0;whiteSpace=wrap;html=1;fontSize=16;dashed=1;" parent="1" vertex="1">
          <mxGeometry x="124" y="491" width="585" height="298" as="geometry" />
        </mxCell>
        <mxCell id="K4tTZbJK00jlwxvX5w37-56" value="" style="rounded=0;whiteSpace=wrap;html=1;fontSize=16;dashed=1;" parent="1" vertex="1">
          <mxGeometry x="124" y="49" width="585" height="397" as="geometry" />
        </mxCell>
        <mxCell id="K4tTZbJK00jlwxvX5w37-49" value="" style="rounded=0;whiteSpace=wrap;html=1;fontSize=16;dashed=1;" parent="1" vertex="1">
          <mxGeometry x="142" y="96" width="544" height="136" as="geometry" />
        </mxCell>
        <mxCell id="K4tTZbJK00jlwxvX5w37-3" value="&lt;font style=&quot;font-size: 18px&quot;&gt;工况特征空间&lt;/font&gt;" style="text;html=1;strokeColor=none;fillColor=none;align=center;verticalAlign=middle;whiteSpace=wrap;rounded=0;" parent="1" vertex="1">
          <mxGeometry x="151.73" y="104" width="111" height="22" as="geometry" />
        </mxCell>
        <mxCell id="K4tTZbJK00jlwxvX5w37-17" value="&lt;font style=&quot;font-size: 32px&quot;&gt;......&lt;/font&gt;" style="text;html=1;strokeColor=none;fillColor=none;align=center;verticalAlign=middle;whiteSpace=wrap;rounded=0;fontSize=16;" parent="1" vertex="1">
          <mxGeometry x="387" y="164" width="40" height="20" as="geometry" />
        </mxCell>
        <mxCell id="K4tTZbJK00jlwxvX5w37-20" value="" style="group" parent="1" vertex="1" connectable="0">
          <mxGeometry x="151.73" y="144" width="86.53999999999999" height="75" as="geometry" />
        </mxCell>
        <mxCell id="K4tTZbJK00jlwxvX5w37-1" value="" style="shape=cube;whiteSpace=wrap;html=1;boundedLbl=1;backgroundOutline=1;darkOpacity=0.05;darkOpacity2=0.1;" parent="K4tTZbJK00jlwxvX5w37-20" vertex="1">
          <mxGeometry width="86.54" height="75" as="geometry" />
        </mxCell>
        <mxCell id="K4tTZbJK00jlwxvX5w37-2" value="X&lt;sub&gt;1&lt;/sub&gt;" style="text;html=1;strokeColor=none;fillColor=none;align=center;verticalAlign=middle;whiteSpace=wrap;rounded=0;fontSize=16;" parent="K4tTZbJK00jlwxvX5w37-20" vertex="1">
          <mxGeometry x="35.27000000000001" y="37" width="40" height="20" as="geometry" />
        </mxCell>
        <mxCell id="K4tTZbJK00jlwxvX5w37-21" value="" style="group" parent="1" vertex="1" connectable="0">
          <mxGeometry x="271" y="142" width="86.54000000000002" height="77" as="geometry" />
        </mxCell>
        <mxCell id="K4tTZbJK00jlwxvX5w37-11" value="" style="shape=cube;whiteSpace=wrap;html=1;boundedLbl=1;backgroundOutline=1;darkOpacity=0.05;darkOpacity2=0.1;" parent="K4tTZbJK00jlwxvX5w37-21" vertex="1">
          <mxGeometry y="2" width="86.54" height="75" as="geometry" />
        </mxCell>
        <mxCell id="K4tTZbJK00jlwxvX5w37-12" value="X&lt;sub&gt;2&lt;/sub&gt;" style="text;html=1;strokeColor=none;fillColor=none;align=center;verticalAlign=middle;whiteSpace=wrap;rounded=0;fontSize=16;" parent="K4tTZbJK00jlwxvX5w37-21" vertex="1">
          <mxGeometry x="35.26999999999998" y="37" width="40" height="20" as="geometry" />
        </mxCell>
        <mxCell id="K4tTZbJK00jlwxvX5w37-22" value="" style="group" parent="1" vertex="1" connectable="0">
          <mxGeometry x="468" y="144" width="86.53999999999996" height="75" as="geometry" />
        </mxCell>
        <mxCell id="K4tTZbJK00jlwxvX5w37-13" value="" style="shape=cube;whiteSpace=wrap;html=1;boundedLbl=1;backgroundOutline=1;darkOpacity=0.05;darkOpacity2=0.1;" parent="K4tTZbJK00jlwxvX5w37-22" vertex="1">
          <mxGeometry width="86.54" height="75" as="geometry" />
        </mxCell>
        <mxCell id="K4tTZbJK00jlwxvX5w37-14" value="X&lt;sub&gt;n-1&lt;/sub&gt;" style="text;html=1;strokeColor=none;fillColor=none;align=center;verticalAlign=middle;whiteSpace=wrap;rounded=0;fontSize=16;" parent="K4tTZbJK00jlwxvX5w37-22" vertex="1">
          <mxGeometry x="35.26999999999998" y="37" width="40" height="20" as="geometry" />
        </mxCell>
        <mxCell id="K4tTZbJK00jlwxvX5w37-23" value="" style="group" parent="1" vertex="1" connectable="0">
          <mxGeometry x="586" y="144" width="86.53999999999996" height="75" as="geometry" />
        </mxCell>
        <mxCell id="K4tTZbJK00jlwxvX5w37-15" value="" style="shape=cube;whiteSpace=wrap;html=1;boundedLbl=1;backgroundOutline=1;darkOpacity=0.05;darkOpacity2=0.1;" parent="K4tTZbJK00jlwxvX5w37-23" vertex="1">
          <mxGeometry width="86.54" height="75" as="geometry" />
        </mxCell>
        <mxCell id="K4tTZbJK00jlwxvX5w37-16" value="X&lt;sub&gt;n&lt;/sub&gt;" style="text;html=1;strokeColor=none;fillColor=none;align=center;verticalAlign=middle;whiteSpace=wrap;rounded=0;fontSize=16;" parent="K4tTZbJK00jlwxvX5w37-23" vertex="1">
          <mxGeometry x="35.26999999999998" y="37" width="40" height="20" as="geometry" />
        </mxCell>
        <mxCell id="K4tTZbJK00jlwxvX5w37-37" style="edgeStyle=orthogonalEdgeStyle;rounded=0;orthogonalLoop=1;jettySize=auto;html=1;exitX=1;exitY=0.5;exitDx=0;exitDy=0;entryX=0;entryY=0.5;entryDx=0;entryDy=0;fontSize=16;" parent="1" source="K4tTZbJK00jlwxvX5w37-25" target="K4tTZbJK00jlwxvX5w37-30" edge="1">
          <mxGeometry relative="1" as="geometry" />
        </mxCell>
        <mxCell id="K4tTZbJK00jlwxvX5w37-54" style="edgeStyle=orthogonalEdgeStyle;rounded=0;orthogonalLoop=1;jettySize=auto;html=1;exitX=0.5;exitY=1;exitDx=0;exitDy=0;fontSize=16;" parent="1" source="K4tTZbJK00jlwxvX5w37-25" target="K4tTZbJK00jlwxvX5w37-51" edge="1">
          <mxGeometry relative="1" as="geometry" />
        </mxCell>
        <mxCell id="K4tTZbJK00jlwxvX5w37-25" value="网格化采样策略" style="rounded=1;whiteSpace=wrap;html=1;fontSize=16;fillColor=#FFF2CC;strokeColor=#d6b656;" parent="1" vertex="1">
          <mxGeometry x="341.5" y="295" width="144" height="48" as="geometry" />
        </mxCell>
        <mxCell id="K4tTZbJK00jlwxvX5w37-47" style="edgeStyle=orthogonalEdgeStyle;rounded=0;orthogonalLoop=1;jettySize=auto;html=1;exitX=0.5;exitY=1;exitDx=0;exitDy=0;entryX=0.5;entryY=0;entryDx=0;entryDy=0;fontSize=16;" parent="1" source="K4tTZbJK00jlwxvX5w37-30" target="K4tTZbJK00jlwxvX5w37-46" edge="1">
          <mxGeometry relative="1" as="geometry" />
        </mxCell>
        <mxCell id="K4tTZbJK00jlwxvX5w37-30" value="&lt;div&gt;取DNBR的&lt;/div&gt;&lt;div&gt;Top k小个样本&lt;/div&gt;" style="rounded=1;whiteSpace=wrap;html=1;fontSize=16;fillColor=#fad9d5;strokeColor=#ae4132;" parent="1" vertex="1">
          <mxGeometry x="528.54" y="295" width="144" height="48" as="geometry" />
        </mxCell>
        <mxCell id="K4tTZbJK00jlwxvX5w37-41" style="edgeStyle=orthogonalEdgeStyle;rounded=0;orthogonalLoop=1;jettySize=auto;html=1;exitX=0;exitY=0;exitDx=53.27;exitDy=75;exitPerimeter=0;entryX=0.5;entryY=0;entryDx=0;entryDy=0;fontSize=16;" parent="1" source="K4tTZbJK00jlwxvX5w37-1" target="K4tTZbJK00jlwxvX5w37-25" edge="1">
          <mxGeometry relative="1" as="geometry" />
        </mxCell>
        <mxCell id="K4tTZbJK00jlwxvX5w37-43" style="edgeStyle=orthogonalEdgeStyle;rounded=0;orthogonalLoop=1;jettySize=auto;html=1;exitX=0;exitY=0;exitDx=53.27;exitDy=75;exitPerimeter=0;entryX=0.5;entryY=0;entryDx=0;entryDy=0;fontSize=16;" parent="1" source="K4tTZbJK00jlwxvX5w37-11" target="K4tTZbJK00jlwxvX5w37-25" edge="1">
          <mxGeometry relative="1" as="geometry" />
        </mxCell>
        <mxCell id="K4tTZbJK00jlwxvX5w37-44" style="edgeStyle=orthogonalEdgeStyle;rounded=0;orthogonalLoop=1;jettySize=auto;html=1;exitX=0;exitY=0;exitDx=53.27;exitDy=75;exitPerimeter=0;entryX=0.5;entryY=0;entryDx=0;entryDy=0;fontSize=16;" parent="1" source="K4tTZbJK00jlwxvX5w37-13" target="K4tTZbJK00jlwxvX5w37-25" edge="1">
          <mxGeometry relative="1" as="geometry" />
        </mxCell>
        <mxCell id="K4tTZbJK00jlwxvX5w37-45" style="edgeStyle=orthogonalEdgeStyle;rounded=0;orthogonalLoop=1;jettySize=auto;html=1;exitX=0;exitY=0;exitDx=53.27;exitDy=75;exitPerimeter=0;entryX=0.5;entryY=0;entryDx=0;entryDy=0;fontSize=16;" parent="1" source="K4tTZbJK00jlwxvX5w37-15" target="K4tTZbJK00jlwxvX5w37-25" edge="1">
          <mxGeometry relative="1" as="geometry" />
        </mxCell>
        <mxCell id="K4tTZbJK00jlwxvX5w37-55" style="edgeStyle=orthogonalEdgeStyle;rounded=0;orthogonalLoop=1;jettySize=auto;html=1;exitX=0;exitY=0.5;exitDx=0;exitDy=0;fontSize=16;" parent="1" source="K4tTZbJK00jlwxvX5w37-46" target="K4tTZbJK00jlwxvX5w37-51" edge="1">
          <mxGeometry relative="1" as="geometry" />
        </mxCell>
        <mxCell id="K4tTZbJK00jlwxvX5w37-46" value="附近样本点再采样" style="rounded=1;whiteSpace=wrap;html=1;fontSize=16;fillColor=#fff2cc;strokeColor=#d6b656;" parent="1" vertex="1">
          <mxGeometry x="528.54" y="379" width="144" height="48" as="geometry" />
        </mxCell>
        <mxCell id="K4tTZbJK00jlwxvX5w37-51" value="&lt;div&gt;最终采样的样本&lt;/div&gt;" style="rounded=0;whiteSpace=wrap;html=1;fontSize=16;fillColor=#dae8fc;strokeColor=#6c8ebf;" parent="1" vertex="1">
          <mxGeometry x="342" y="379" width="144" height="48" as="geometry" />
        </mxCell>
        <mxCell id="K4tTZbJK00jlwxvX5w37-68" style="edgeStyle=orthogonalEdgeStyle;rounded=0;orthogonalLoop=1;jettySize=auto;html=1;fontSize=16;" parent="1" source="K4tTZbJK00jlwxvX5w37-58" target="K4tTZbJK00jlwxvX5w37-60" edge="1">
          <mxGeometry relative="1" as="geometry" />
        </mxCell>
        <mxCell id="K4tTZbJK00jlwxvX5w37-110" style="edgeStyle=orthogonalEdgeStyle;rounded=0;orthogonalLoop=1;jettySize=auto;html=1;fontSize=16;" parent="1" source="K4tTZbJK00jlwxvX5w37-58" target="K4tTZbJK00jlwxvX5w37-61" edge="1">
          <mxGeometry relative="1" as="geometry" />
        </mxCell>
        <mxCell id="K4tTZbJK00jlwxvX5w37-58" value="&lt;div&gt;观察直方图是否&lt;/div&gt;&lt;div&gt;&amp;nbsp; 属于熟知的分布？&lt;/div&gt;" style="rhombus;whiteSpace=wrap;html=1;fontSize=16;fillColor=#FFEBF8;" parent="1" vertex="1">
          <mxGeometry x="308.73" y="620.5" width="212" height="71" as="geometry" />
        </mxCell>
        <mxCell id="K4tTZbJK00jlwxvX5w37-63" style="edgeStyle=orthogonalEdgeStyle;rounded=0;orthogonalLoop=1;jettySize=auto;html=1;exitX=0.5;exitY=1;exitDx=0;exitDy=0;fontSize=16;" parent="1" source="K4tTZbJK00jlwxvX5w37-59" target="K4tTZbJK00jlwxvX5w37-58" edge="1">
          <mxGeometry relative="1" as="geometry" />
        </mxCell>
        <mxCell id="K4tTZbJK00jlwxvX5w37-59" value="&lt;span&gt;&lt;/span&gt;&lt;span&gt;作LOR&lt;/span&gt;&lt;span&gt;偏差直方图&lt;/span&gt;&lt;span&gt;&lt;/span&gt;" style="rounded=1;whiteSpace=wrap;html=1;fontSize=16;fillColor=#FAD9D5;strokeColor=#d6b656;" parent="1" vertex="1">
          <mxGeometry x="342.73" y="537" width="144" height="48" as="geometry" />
        </mxCell>
        <mxCell id="K4tTZbJK00jlwxvX5w37-87" style="edgeStyle=orthogonalEdgeStyle;rounded=0;orthogonalLoop=1;jettySize=auto;html=1;exitX=0.5;exitY=1;exitDx=0;exitDy=0;entryX=0;entryY=0.5;entryDx=0;entryDy=0;fontSize=16;" parent="1" source="K4tTZbJK00jlwxvX5w37-60" target="K4tTZbJK00jlwxvX5w37-86" edge="1">
          <mxGeometry relative="1" as="geometry" />
        </mxCell>
        <mxCell id="K4tTZbJK00jlwxvX5w37-60" value="参数估计：极大似然估计法" style="rounded=1;whiteSpace=wrap;html=1;fontSize=16;fillColor=#FFF2CC;strokeColor=#ae4132;" parent="1" vertex="1">
          <mxGeometry x="133.72999999999993" y="632" width="144" height="48" as="geometry" />
        </mxCell>
        <mxCell id="K4tTZbJK00jlwxvX5w37-114" style="edgeStyle=orthogonalEdgeStyle;rounded=0;orthogonalLoop=1;jettySize=auto;html=1;entryX=1;entryY=0.5;entryDx=0;entryDy=0;fontSize=16;" parent="1" source="K4tTZbJK00jlwxvX5w37-61" target="K4tTZbJK00jlwxvX5w37-86" edge="1">
          <mxGeometry relative="1" as="geometry">
            <Array as="points">
              <mxPoint x="629" y="750" />
            </Array>
          </mxGeometry>
        </mxCell>
        <mxCell id="K4tTZbJK00jlwxvX5w37-61" value="非参数估计：核函数密度估计法" style="rounded=1;whiteSpace=wrap;html=1;fontSize=16;fillColor=#FFF2CC;strokeColor=#ae4132;" parent="1" vertex="1">
          <mxGeometry x="557.27" y="632" width="144" height="48" as="geometry" />
        </mxCell>
        <mxCell id="K4tTZbJK00jlwxvX5w37-86" value="LOR偏差的概率密度函数" style="rounded=0;whiteSpace=wrap;html=1;fontSize=16;fillColor=#dae8fc;strokeColor=#6c8ebf;" parent="1" vertex="1">
          <mxGeometry x="342.73" y="726" width="144" height="48" as="geometry" />
        </mxCell>
        <mxCell id="K4tTZbJK00jlwxvX5w37-94" value="是" style="text;html=1;strokeColor=none;fillColor=none;align=center;verticalAlign=middle;whiteSpace=wrap;rounded=0;fontSize=16;" parent="1" vertex="1">
          <mxGeometry x="277.73" y="634" width="40" height="20" as="geometry" />
        </mxCell>
        <mxCell id="K4tTZbJK00jlwxvX5w37-95" value="否" style="text;html=1;strokeColor=none;fillColor=none;align=center;verticalAlign=middle;whiteSpace=wrap;rounded=0;fontSize=16;" parent="1" vertex="1">
          <mxGeometry x="514.27" y="634" width="40" height="20" as="geometry" />
        </mxCell>
        <mxCell id="K4tTZbJK00jlwxvX5w37-98" value="" style="shape=singleArrow;direction=south;whiteSpace=wrap;html=1;fontSize=16;fillColor=#FFF2CC;" parent="1" vertex="1">
          <mxGeometry x="404.53" y="451" width="20.4" height="34" as="geometry" />
        </mxCell>
        <mxCell id="K4tTZbJK00jlwxvX5w37-99" value="&lt;font style=&quot;font-size: 20px&quot;&gt;采样模块&lt;/font&gt;" style="text;html=1;strokeColor=none;fillColor=none;align=center;verticalAlign=middle;whiteSpace=wrap;rounded=0;fontSize=20;" parent="1" vertex="1">
          <mxGeometry x="590.77" y="49" width="95.23" height="45" as="geometry" />
        </mxCell>
        <mxCell id="dDg8U9DCfIWqEnsUYY7_-1" value="&lt;font style=&quot;font-size: 20px&quot;&gt;遗传模块&lt;/font&gt;" style="text;html=1;strokeColor=none;fillColor=none;align=center;verticalAlign=middle;whiteSpace=wrap;rounded=0;fontSize=20;" vertex="1" parent="1">
          <mxGeometry x="590.77" y="501" width="95.23" height="45" as="geometry" />
        </mxCell>
      </root>
    </mxGraphModel>
  </diagram>
</mxfile>
